<svg width="161" height="71" viewBox="0 0 161 71" fill="none" xmlns="http://www.w3.org/2000/svg">
<path d="M39.0392 40.1147L38.9432 40.232C38.8721 40.3031 38.7512 40.3956 38.5805 40.5093C38.417 40.616 38.2179 40.7262 37.9832 40.84C37.7556 40.9467 37.4499 41.0356 37.0659 41.1067C36.6819 41.1849 36.2694 41.224 35.8285 41.224C34.897 41.224 34.1005 41.0711 33.4392 40.7653C32.7779 40.4524 32.2588 40.0009 31.8819 39.4107C31.5121 38.8133 31.2454 38.1413 31.0819 37.3947C30.9183 36.6409 30.8365 35.7698 30.8365 34.7813C30.8365 33.7289 30.9183 32.8222 31.0819 32.0613C31.2454 31.2933 31.5156 30.6213 31.8925 30.0453C32.2765 29.4622 32.8028 29.0249 33.4712 28.7333C34.1396 28.4418 34.9539 28.296 35.9139 28.296C36.3548 28.296 36.7672 28.3351 37.1512 28.4133C37.5423 28.4916 37.8481 28.5804 38.0685 28.68C38.2961 28.7796 38.4988 28.8933 38.6765 29.0213C38.8614 29.1493 38.9752 29.2382 39.0179 29.288C39.0676 29.3378 39.1032 29.3769 39.1245 29.4053L38.9645 31.8587H37.3432L36.7885 30.5893C36.6605 30.5538 36.5539 30.536 36.4685 30.536C35.9921 30.536 35.6259 30.6462 35.3699 30.8667C35.1139 31.08 34.9183 31.5031 34.7832 32.136C34.6481 32.7618 34.5805 33.6649 34.5805 34.8453C34.5805 35.5493 34.6232 36.1644 34.7085 36.6907C34.801 37.2169 34.9112 37.6222 35.0392 37.9067C35.1672 38.184 35.3201 38.408 35.4979 38.5787C35.6756 38.7493 35.8356 38.8596 35.9779 38.9093C36.1201 38.952 36.273 38.9733 36.4365 38.9733C36.7992 38.9733 37.1796 38.9307 37.5779 38.8453C37.9761 38.7529 38.3032 38.6142 38.5592 38.4293L39.0392 40.1147ZM45.9949 39.944C46.3078 39.944 46.5461 39.816 46.7096 39.56C46.8803 39.2969 46.9656 38.9378 46.9656 38.4827V35.112C46.9656 33.7253 46.6385 33.032 45.9843 33.032C45.6785 33.032 45.4403 33.1564 45.2696 33.4053C45.0989 33.6542 45.0136 34.0062 45.0136 34.4613V37.928C45.0136 39.272 45.3407 39.944 45.9949 39.944ZM45.9096 41.224C44.2812 41.224 43.0901 40.8542 42.3363 40.1147C41.5825 39.3751 41.2056 38.1947 41.2056 36.5733C41.2056 34.9662 41.5861 33.7573 42.3469 32.9467C43.1078 32.1289 44.3452 31.72 46.0589 31.72C47.7301 31.72 48.9354 32.1111 49.6749 32.8933C50.4216 33.6684 50.7949 34.8453 50.7949 36.424C50.7949 38.0596 50.4003 39.2684 49.6109 40.0507C48.8287 40.8329 47.5949 41.224 45.9096 41.224ZM59.5196 41L59.1036 39.624C59.0467 39.7236 58.9792 39.8231 58.9009 39.9227C58.8298 40.0222 58.7125 40.1502 58.5489 40.3067C58.3854 40.456 58.2112 40.5876 58.0263 40.7013C57.8414 40.8151 57.6103 40.9147 57.3329 41C57.0556 41.0853 56.7641 41.128 56.4583 41.128C55.2849 41.128 54.4245 40.7262 53.8769 39.9227C53.3294 39.1191 53.0556 38.0027 53.0556 36.5733C53.0556 35.6773 53.1836 34.8809 53.4396 34.184C53.6956 33.48 54.0974 32.9147 54.6449 32.488C55.1925 32.0613 55.8538 31.848 56.6289 31.848C57.0912 31.848 57.5036 31.8978 57.8663 31.9973C58.2289 32.0969 58.5418 32.2178 58.8049 32.36V29.128L57.6316 28.7333V27.56L61.4076 27.0267H62.2396V41H59.5196ZM58.0156 39.0373C58.1436 39.0373 58.2752 39.016 58.4103 38.9733C58.5454 38.9236 58.6769 38.856 58.8049 38.7707V33.4053C58.5845 33.3556 58.3818 33.3307 58.1969 33.3307C57.2512 33.3378 56.7747 34.0667 56.7676 35.5173V37.0107C56.7676 37.6791 56.8849 38.184 57.1196 38.5253C57.3543 38.8667 57.6529 39.0373 58.0156 39.0373ZM70.0713 35.4853C70.0713 34.5822 70.0251 33.9422 69.9326 33.5653C69.8402 33.1884 69.6695 33 69.4206 33C69.2073 33 69.0331 33.0391 68.8979 33.1173C68.7628 33.1884 68.6633 33.3058 68.5993 33.4693C68.5353 33.6258 68.4926 33.7893 68.4713 33.96C68.4571 34.1236 68.4499 34.3333 68.4499 34.5893V35.4853H70.0713ZM69.2179 41.224C68.4215 41.224 67.7282 41.1031 67.1379 40.8613C66.5548 40.6196 66.0926 40.2818 65.7513 39.848C65.4171 39.4142 65.1717 38.9271 65.0153 38.3867C64.8588 37.8391 64.7806 37.2311 64.7806 36.5627C64.7806 34.9698 65.1859 33.7644 65.9966 32.9467C66.8073 32.1289 67.9415 31.72 69.3993 31.72C70.8002 31.72 71.8028 32.0507 72.4073 32.712C73.0117 33.3662 73.3139 34.4222 73.3139 35.88V37.064H68.4393V37.2667C68.4393 37.6862 68.4819 38.0311 68.5673 38.3013C68.6597 38.5716 68.7913 38.7707 68.9619 38.8987C69.1326 39.0267 69.3068 39.112 69.4846 39.1547C69.6624 39.1973 69.8793 39.2187 70.1353 39.2187C70.3842 39.2187 70.6508 39.1867 70.9353 39.1227C71.2268 39.0587 71.5184 38.9591 71.8099 38.824C72.1086 38.6889 72.3575 38.5289 72.5566 38.344L73.1859 39.4213C72.9228 39.848 72.5353 40.2071 72.0233 40.4987C71.5184 40.7831 71.0313 40.9751 70.5619 41.0747C70.0926 41.1742 69.6446 41.224 69.2179 41.224ZM83.8454 40.1147L83.7494 40.232C83.6783 40.3031 83.5574 40.3956 83.3868 40.5093C83.2232 40.616 83.0241 40.7262 82.7894 40.84C82.5619 40.9467 82.2561 41.0356 81.8721 41.1067C81.4881 41.1849 81.0757 41.224 80.6348 41.224C79.7032 41.224 78.9068 41.0711 78.2454 40.7653C77.5841 40.4524 77.065 40.0009 76.6881 39.4107C76.3183 38.8133 76.0517 38.1413 75.8881 37.3947C75.7246 36.6409 75.6428 35.7698 75.6428 34.7813C75.6428 33.7289 75.7246 32.8222 75.8881 32.0613C76.0517 31.2933 76.3219 30.6213 76.6988 30.0453C77.0828 29.4622 77.609 29.0249 78.2774 28.7333C78.9459 28.4418 79.7601 28.296 80.7201 28.296C81.161 28.296 81.5734 28.3351 81.9574 28.4133C82.3486 28.4916 82.6543 28.5804 82.8748 28.68C83.1023 28.7796 83.305 28.8933 83.4828 29.0213C83.6677 29.1493 83.7814 29.2382 83.8241 29.288C83.8739 29.3378 83.9094 29.3769 83.9308 29.4053L83.7708 31.8587H82.1494L81.5948 30.5893C81.4668 30.5538 81.3601 30.536 81.2748 30.536C80.7983 30.536 80.4321 30.6462 80.1761 30.8667C79.9201 31.08 79.7246 31.5031 79.5894 32.136C79.4543 32.7618 79.3868 33.6649 79.3868 34.8453C79.3868 35.5493 79.4294 36.1644 79.5148 36.6907C79.6072 37.2169 79.7174 37.6222 79.8454 37.9067C79.9734 38.184 80.1263 38.408 80.3041 38.5787C80.4819 38.7493 80.6419 38.8596 80.7841 38.9093C80.9263 38.952 81.0792 38.9733 81.2428 38.9733C81.6054 38.9733 81.9859 38.9307 82.3841 38.8453C82.7823 38.7529 83.1094 38.6142 83.3654 38.4293L83.8454 40.1147ZM90.8012 39.944C91.1141 39.944 91.3523 39.816 91.5159 39.56C91.6865 39.2969 91.7719 38.9378 91.7719 38.4827V35.112C91.7719 33.7253 91.4448 33.032 90.7905 33.032C90.4848 33.032 90.2465 33.1564 90.0759 33.4053C89.9052 33.6542 89.8199 34.0062 89.8199 34.4613V37.928C89.8199 39.272 90.147 39.944 90.8012 39.944ZM90.7159 41.224C89.0874 41.224 87.8963 40.8542 87.1425 40.1147C86.3888 39.3751 86.0119 38.1947 86.0119 36.5733C86.0119 34.9662 86.3923 33.7573 87.1532 32.9467C87.9141 32.1289 89.1514 31.72 90.8652 31.72C92.5363 31.72 93.7416 32.1111 94.4812 32.8933C95.2279 33.6684 95.6012 34.8453 95.6012 36.424C95.6012 38.0596 95.2065 39.2684 94.4172 40.0507C93.635 40.8329 92.4012 41.224 90.7159 41.224ZM101.809 41H98.3632V34.0987L97.7232 33.704V32.5627L100.017 31.9333H101.83V33.3093C101.865 33.2596 101.915 33.1956 101.979 33.1173C102.05 33.032 102.178 32.9004 102.363 32.7227C102.548 32.5449 102.737 32.3884 102.929 32.2533C103.128 32.1182 103.366 31.9973 103.643 31.8907C103.928 31.7769 104.209 31.72 104.486 31.72C105.197 31.72 105.741 31.8551 106.118 32.1253C106.495 32.3956 106.761 32.8364 106.918 33.448C107.16 33.0284 107.529 32.6373 108.027 32.2747C108.532 31.9049 109.087 31.72 109.691 31.72C110.36 31.72 110.879 31.8373 111.249 32.072C111.625 32.2996 111.899 32.6907 112.07 33.2453C112.241 33.8 112.326 34.5822 112.326 35.592V41H108.859V35.2827C108.859 34.9698 108.785 34.7244 108.635 34.5467C108.486 34.3689 108.258 34.28 107.953 34.28C107.746 34.28 107.465 34.4507 107.11 34.792C107.131 35.1333 107.142 35.5031 107.142 35.9013V41H103.622V35.2827C103.643 34.6142 103.359 34.28 102.769 34.28C102.726 34.28 102.683 34.2836 102.641 34.2907C102.605 34.2978 102.569 34.3049 102.534 34.312C102.505 34.3191 102.47 34.3333 102.427 34.3547C102.392 34.3689 102.36 34.3831 102.331 34.3973C102.303 34.4044 102.271 34.4222 102.235 34.4507C102.2 34.472 102.171 34.4898 102.15 34.504C102.129 34.5182 102.097 34.5431 102.054 34.5787C102.018 34.6071 101.99 34.6284 101.969 34.6427C101.954 34.6569 101.926 34.6818 101.883 34.7173C101.848 34.7458 101.823 34.7671 101.809 34.7813V41ZM120.737 41C120.325 41 119.948 40.9573 119.606 40.872C119.265 40.7867 118.966 40.68 118.71 40.552V44.2213H115.276V34.0987L114.636 33.704V32.5627L116.929 31.9333H118.71V32.648C118.966 32.3849 119.276 32.1644 119.638 31.9867C120.001 31.8089 120.424 31.72 120.908 31.72C122.081 31.72 122.941 32.1218 123.489 32.9253C124.044 33.7289 124.321 34.8418 124.321 36.264C124.321 36.9324 124.246 37.5511 124.097 38.12C123.948 38.6818 123.727 39.1796 123.436 39.6133C123.144 40.0471 122.767 40.3884 122.305 40.6373C121.85 40.8791 121.327 41 120.737 41ZM119.169 39.5173C120.122 39.5173 120.598 38.7884 120.598 37.3307V35.5173C120.598 34.8773 120.488 34.4009 120.268 34.088C120.054 33.7751 119.777 33.6187 119.436 33.6187C119.201 33.6187 118.959 33.6898 118.71 33.832V39.464C118.796 39.4853 118.874 39.4996 118.945 39.5067C119.023 39.5138 119.098 39.5173 119.169 39.5173ZM127.04 41V28.936L126.4 28.552V27.56L129.824 27.0267H130.517V41H127.04ZM138.328 35.4853C138.328 34.5822 138.281 33.9422 138.189 33.5653C138.096 33.1884 137.926 33 137.677 33C137.464 33 137.289 33.0391 137.154 33.1173C137.019 33.1884 136.92 33.3058 136.856 33.4693C136.792 33.6258 136.749 33.7893 136.728 33.96C136.713 34.1236 136.706 34.3333 136.706 34.5893V35.4853H138.328ZM137.474 41.224C136.678 41.224 135.984 41.1031 135.394 40.8613C134.811 40.6196 134.349 40.2818 134.008 39.848C133.673 39.4142 133.428 38.9271 133.272 38.3867C133.115 37.8391 133.037 37.2311 133.037 36.5627C133.037 34.9698 133.442 33.7644 134.253 32.9467C135.064 32.1289 136.198 31.72 137.656 31.72C139.056 31.72 140.059 32.0507 140.664 32.712C141.268 33.3662 141.57 34.4222 141.57 35.88V37.064H136.696V37.2667C136.696 37.6862 136.738 38.0311 136.824 38.3013C136.916 38.5716 137.048 38.7707 137.218 38.8987C137.389 39.0267 137.563 39.112 137.741 39.1547C137.919 39.1973 138.136 39.2187 138.392 39.2187C138.64 39.2187 138.907 39.1867 139.192 39.1227C139.483 39.0587 139.775 38.9591 140.066 38.824C140.365 38.6889 140.614 38.5289 140.813 38.344L141.442 39.4213C141.179 39.848 140.792 40.2071 140.28 40.4987C139.775 40.7831 139.288 40.9751 138.818 41.0747C138.349 41.1742 137.901 41.224 137.474 41.224ZM146.822 41.224C145.862 41.224 145.19 40.936 144.806 40.36C144.429 39.784 144.24 38.8098 144.24 37.4373V33.8107H143.504V32.328L144.763 31.9333L145.851 29.448H147.728V31.9333H149.478V33.8107H147.696V37.7787C147.696 38.3476 147.778 38.7244 147.942 38.9093C148.105 39.0942 148.358 39.1867 148.699 39.1867C148.848 39.1867 148.983 39.1689 149.104 39.1333C149.225 39.0978 149.325 39.048 149.403 38.984V40.4347C149.296 40.5413 149.158 40.648 148.987 40.7547C148.816 40.8542 148.532 40.9573 148.134 41.064C147.743 41.1707 147.305 41.224 146.822 41.224ZM156.809 35.4853C156.809 34.5822 156.763 33.9422 156.67 33.5653C156.578 33.1884 156.407 33 156.158 33C155.945 33 155.771 33.0391 155.635 33.1173C155.5 33.1884 155.401 33.3058 155.337 33.4693C155.273 33.6258 155.23 33.7893 155.209 33.96C155.195 34.1236 155.187 34.3333 155.187 34.5893V35.4853H156.809ZM155.955 41.224C155.159 41.224 154.466 41.1031 153.875 40.8613C153.292 40.6196 152.83 40.2818 152.489 39.848C152.155 39.4142 151.909 38.9271 151.753 38.3867C151.596 37.8391 151.518 37.2311 151.518 36.5627C151.518 34.9698 151.923 33.7644 152.734 32.9467C153.545 32.1289 154.679 31.72 156.137 31.72C157.538 31.72 158.54 32.0507 159.145 32.712C159.749 33.3662 160.051 34.4222 160.051 35.88V37.064H155.177V37.2667C155.177 37.6862 155.219 38.0311 155.305 38.3013C155.397 38.5716 155.529 38.7707 155.699 38.8987C155.87 39.0267 156.044 39.112 156.222 39.1547C156.4 39.1973 156.617 39.2187 156.873 39.2187C157.122 39.2187 157.388 39.1867 157.673 39.1227C157.964 39.0587 158.256 38.9591 158.547 38.824C158.846 38.6889 159.095 38.5289 159.294 38.344L159.923 39.4213C159.66 39.848 159.273 40.2071 158.761 40.4987C158.256 40.7831 157.769 40.9751 157.299 41.0747C156.83 41.1742 156.382 41.224 155.955 41.224Z" fill="black"/>
<path d="M6.82751 35.5031C6.82751 43.1083 9.84868 50.402 15.2264 55.7797L25.3749 45.6313C22.6887 42.9451 21.1796 39.3019 21.1796 35.5031L6.82751 35.5031Z" fill="#FACC89"/>
<path d="M55.7797 15.2264C50.402 9.84868 43.1083 6.82751 35.5031 6.82751L35.5031 21.1796C39.3019 21.1796 42.9451 22.6887 45.6313 25.3749L55.7797 15.2264Z" fill="#1C96D5"/>
<path d="M10.3986 60.6075C13.6954 63.9043 17.6092 66.5194 21.9166 68.3036C26.2241 70.0878 30.8407 71.0061 35.5031 71.0061L35.5031 49.7183C33.6363 49.7183 31.7878 49.3506 30.0631 48.6362C28.3385 47.9218 26.7714 46.8748 25.4514 45.5548L10.3986 60.6075Z" fill="#D9D9D9"/>
<path d="M10.3986 60.6075C13.6954 63.9043 17.6092 66.5194 21.9166 68.3036C26.2241 70.0878 30.8407 71.0061 35.5031 71.0061L35.5031 49.7183C33.6363 49.7183 31.7878 49.3506 30.0631 48.6362C28.3385 47.9218 26.7714 46.8748 25.4514 45.5548L10.3986 60.6075Z" fill="#FFFCD2"/>
<path d="M35.5031 71.0061C40.1654 71.0061 44.7821 70.0878 49.0895 68.3036C53.3969 66.5194 57.3108 63.9043 60.6075 60.6075L45.5548 45.5548C44.2347 46.8748 42.6677 47.9218 40.943 48.6362C39.2183 49.3506 37.3698 49.7183 35.5031 49.7183L35.5031 71.0061Z" fill="#E9ED99"/>
<path d="M10.3986 10.3986C7.10184 13.6954 4.4867 17.6092 2.70251 21.9166C0.918313 26.2241 -7.03992e-07 30.8407 0 35.5031L21.2878 35.5031C21.2878 33.6363 21.6555 31.7878 22.3699 30.0631C23.0843 28.3385 24.1314 26.7714 25.4514 25.4514L10.3986 10.3986Z" fill="#FCEDF4"/>
<path d="M35.5031 0C30.8407 -5.55977e-08 26.2241 0.918314 21.9166 2.70251C17.6092 4.48671 13.6954 7.10184 10.3986 10.3986L25.4514 25.4514C26.7714 24.1314 28.3385 23.0843 30.0631 22.3699C31.7878 21.6555 33.6363 21.2878 35.5031 21.2878L35.5031 0Z" fill="#FEF9FB"/>
<path d="M6.82751 35.5031C6.82751 39.2688 7.56923 42.9976 9.01031 46.4767C10.4514 49.9558 12.5636 53.117 15.2264 55.7797L17.3937 53.6125C15.0155 51.2343 13.129 48.411 11.842 45.3038C10.5549 42.1966 9.8925 38.8663 9.8925 35.5031L6.82751 35.5031Z" fill="#F49B07"/>
<path d="M55.7797 15.2264C53.117 12.5636 49.9558 10.4514 46.4767 9.01031C42.9976 7.56923 39.2688 6.82751 35.5031 6.82751L35.5031 9.8925C38.8663 9.8925 42.1966 10.5549 45.3038 11.842C48.411 13.129 51.2343 15.0155 53.6125 17.3937L55.7797 15.2264Z" fill="#0068B7"/>
<path d="M35.5031 0C30.8407 -5.55977e-08 26.2241 0.918314 21.9166 2.70251C17.6092 4.48671 13.6954 7.10184 10.3986 10.3986L22.2925 22.2925C24.0274 20.5577 26.0869 19.1816 28.3536 18.2427C30.6202 17.3038 33.0496 16.8206 35.5031 16.8206L35.5031 0Z" fill="#FCF2F7"/>
<path d="M35.5031 71.0061C40.1654 71.0061 44.7821 70.0878 49.0895 68.3036C53.3969 66.5194 57.3108 63.9043 60.6075 60.6075L48.7136 48.7136C46.9788 50.4484 44.9192 51.8246 42.6525 52.7634C40.3859 53.7023 37.9565 54.1856 35.5031 54.1856L35.5031 71.0061Z" fill="#CDE299"/>
<path d="M10.3986 10.3986C7.10184 13.6954 4.4867 17.6092 2.70251 21.9166C0.918313 26.2241 -7.03992e-07 30.8407 0 35.5031L16.8206 35.5031C16.8206 33.0496 17.3038 30.6203 18.2427 28.3536C19.1816 26.0869 20.5577 24.0274 22.2925 22.2925L10.3986 10.3986Z" fill="#F7C7DC"/>
<path d="M35.5031 71.0061C40.1654 71.0061 44.7821 70.0878 49.0895 68.3036C53.3969 66.5194 57.3108 63.9043 60.6075 60.6075L50.7953 50.7953C48.7871 52.8035 46.403 54.3965 43.7792 55.4833C41.1553 56.5701 38.3431 57.1295 35.5031 57.1295L35.5031 71.0061Z" fill="#8AC998"/>
<path d="M10.3986 10.3986C7.10184 13.6954 4.4867 17.6092 2.70251 21.9166C0.918313 26.2241 -7.03992e-07 30.8407 0 35.5031L13.8766 35.5031C13.8766 32.663 14.436 29.8508 15.5228 27.227C16.6097 24.6031 18.2027 22.2191 20.2109 20.2109L10.3986 10.3986Z" fill="#ED81B0"/>
<path d="M35.5031 0C30.8407 -5.55977e-08 26.2241 0.918314 21.9166 2.70251C17.6092 4.48671 13.6954 7.10184 10.3986 10.3986L20.2109 20.2109C22.2191 18.2027 24.6031 16.6097 27.227 15.5228C29.8508 14.436 32.663 13.8766 35.5031 13.8766L35.5031 0Z" fill="#FBE4EF"/>
<path d="M10.3986 60.6075C13.6954 63.9043 17.6092 66.5194 21.9166 68.3036C26.2241 70.0878 30.8407 71.0061 35.5031 71.0061L35.5031 61.0474C32.1485 61.0474 28.8268 60.3867 25.7277 59.103C22.6285 57.8193 19.8125 55.9377 17.4405 53.5657L10.3986 60.6075Z" fill="#FFF899"/>
<path d="M35.5031 0C30.8407 -5.55977e-08 26.2241 0.918314 21.9166 2.70251C17.6092 4.48671 13.6954 7.10184 10.3986 10.3986L17.4405 17.4405C19.8125 15.0684 22.6285 13.1869 25.7277 11.9031C28.8268 10.6194 32.1485 9.95869 35.5031 9.95869L35.5031 0Z" fill="#F7C6DB"/>
<path d="M10.3986 60.6075C13.6954 63.9043 17.6092 66.5194 21.9166 68.3036C26.2241 70.0878 30.8407 71.0061 35.5031 71.0061L35.5031 63.2598C31.858 63.2598 28.2486 62.5419 24.881 61.147C21.5134 59.7521 18.4535 57.7075 15.8761 55.1301L10.3986 60.6075Z" fill="#8AC998"/>
<path d="M35.5031 0C30.8407 -5.55977e-08 26.2241 0.918314 21.9166 2.70251C17.6092 4.48671 13.6954 7.10184 10.3986 10.3986L15.7463 15.7463C18.3408 13.1518 21.4209 11.0937 24.8108 9.68958C28.2006 8.28545 31.8339 7.56275 35.5031 7.56275L35.5031 0Z" fill="#ED81B0"/>
<path d="M35.5031 0C30.8407 -5.55977e-08 26.2241 0.918314 21.9166 2.70251C17.6092 4.48671 13.6954 7.10184 10.3986 10.3986C7.10184 13.6954 4.4867 17.6092 2.70251 21.9166C0.918313 26.2241 -7.03992e-07 30.8407 0 35.5031L2.96578 35.5031C2.96578 31.2302 3.80738 26.9992 5.44253 23.0516C7.07769 19.104 9.47436 15.5171 12.4957 12.4957C15.5171 9.47437 19.104 7.07769 23.0516 5.44254C26.9992 3.80738 31.2302 2.96578 35.5031 2.96578L35.5031 0Z" fill="#E4007F"/>
<path d="M10.3986 60.6075C13.6954 63.9043 17.6092 66.5194 21.9166 68.3036C26.2241 70.0878 30.8407 71.0061 35.5031 71.0061C40.1654 71.0061 44.7821 70.0878 49.0895 68.3036C53.3969 66.5194 57.3108 63.9043 60.6075 60.6075L58.5104 58.5104C55.489 61.5318 51.9022 63.9284 47.9546 65.5636C44.0069 67.1987 39.7759 68.0404 35.5031 68.0404C31.2302 68.0404 26.9992 67.1988 23.0516 65.5636C19.104 63.9284 15.5171 61.5318 12.4957 58.5104L10.3986 60.6075Z" fill="#009944"/>
</svg>
