<svg width="102" height="102" viewBox="0 0 102 102" fill="none" xmlns="http://www.w3.org/2000/svg">
<path d="M7.994 97.2807L7.916 97.376C7.85822 97.4338 7.76 97.5089 7.62133 97.6013C7.48844 97.688 7.32667 97.7776 7.136 97.87C6.95111 97.9567 6.70267 98.0289 6.39067 98.0867C6.07867 98.1502 5.74356 98.182 5.38533 98.182C4.62844 98.182 3.98133 98.0578 3.444 97.8093C2.90667 97.5551 2.48489 97.1882 2.17867 96.7087C1.87822 96.2233 1.66156 95.6773 1.52867 95.0707C1.39578 94.4582 1.32933 93.7504 1.32933 92.9473C1.32933 92.0922 1.39578 91.3556 1.52867 90.7373C1.66156 90.1133 1.88111 89.5673 2.18733 89.0993C2.49933 88.6256 2.92689 88.2702 3.47 88.0333C4.01311 87.7964 4.67467 87.678 5.45467 87.678C5.81289 87.678 6.148 87.7098 6.46 87.7733C6.77778 87.8369 7.02622 87.9091 7.20533 87.99C7.39022 88.0709 7.55489 88.1633 7.69933 88.2673C7.84956 88.3713 7.942 88.4436 7.97667 88.484C8.01711 88.5244 8.046 88.5562 8.06333 88.5793L7.93333 90.5727H6.616L6.16533 89.5413C6.06133 89.5124 5.97467 89.498 5.90533 89.498C5.51822 89.498 5.22067 89.5876 5.01267 89.7667C4.80467 89.94 4.64578 90.2838 4.536 90.798C4.42622 91.3064 4.37133 92.0402 4.37133 92.9993C4.37133 93.5713 4.406 94.0711 4.47533 94.4987C4.55044 94.9262 4.64 95.2556 4.744 95.4867C4.848 95.712 4.97222 95.894 5.11667 96.0327C5.26111 96.1713 5.39111 96.2609 5.50667 96.3013C5.62222 96.336 5.74644 96.3533 5.87933 96.3533C6.174 96.3533 6.48311 96.3187 6.80667 96.2493C7.13022 96.1742 7.396 96.0616 7.604 95.9113L7.994 97.2807ZM13.1255 97.142C13.3798 97.142 13.5733 97.038 13.7062 96.83C13.8449 96.6162 13.9142 96.3244 13.9142 95.9547V93.216C13.9142 92.0893 13.6484 91.526 13.1169 91.526C12.8684 91.526 12.6749 91.6271 12.5362 91.8293C12.3975 92.0316 12.3282 92.3176 12.3282 92.6873V95.504C12.3282 96.596 12.594 97.142 13.1255 97.142ZM13.0562 98.182C11.7331 98.182 10.7653 97.8816 10.1529 97.2807C9.54044 96.6798 9.23421 95.7207 9.23421 94.4033C9.23421 93.0976 9.54332 92.1153 10.1615 91.4567C10.7798 90.7922 11.7851 90.46 13.1775 90.46C14.5353 90.46 15.5147 90.7778 16.1155 91.4133C16.7222 92.0431 17.0255 92.9993 17.0255 94.282C17.0255 95.6109 16.7049 96.5931 16.0635 97.2287C15.428 97.8642 14.4255 98.182 13.0562 98.182ZM23.5943 98L23.2563 96.882C23.2101 96.9629 23.1552 97.0438 23.0917 97.1247C23.0339 97.2056 22.9386 97.3096 22.8057 97.4367C22.6728 97.558 22.5312 97.6649 22.381 97.7573C22.2308 97.8498 22.043 97.9307 21.8177 98C21.5923 98.0693 21.3554 98.104 21.107 98.104C20.1537 98.104 19.4546 97.7776 19.0097 97.1247C18.5648 96.4718 18.3423 95.5647 18.3423 94.4033C18.3423 93.6753 18.4463 93.0282 18.6543 92.462C18.8623 91.89 19.1888 91.4307 19.6337 91.084C20.0786 90.7373 20.6159 90.564 21.2457 90.564C21.6212 90.564 21.9563 90.6044 22.251 90.6853C22.5457 90.7662 22.7999 90.8644 23.0137 90.98V88.354L22.0603 88.0333V87.08L25.1283 86.6467H25.8043V98H23.5943ZM22.3723 96.4053C22.4763 96.4053 22.5832 96.388 22.693 96.3533C22.8028 96.3129 22.9097 96.258 23.0137 96.1887V91.8293C22.8346 91.7889 22.6699 91.7687 22.5197 91.7687C21.7512 91.7744 21.3641 92.3667 21.3583 93.5453V94.7587C21.3583 95.3018 21.4537 95.712 21.6443 95.9893C21.835 96.2667 22.0777 96.4053 22.3723 96.4053ZM31.6476 93.5193C31.6476 92.7856 31.61 92.2656 31.5349 91.9593C31.4598 91.6531 31.3211 91.5 31.1189 91.5C30.9456 91.5 30.804 91.5318 30.6942 91.5953C30.5845 91.6531 30.5036 91.7484 30.4516 91.8813C30.3996 92.0084 30.3649 92.1413 30.3476 92.28C30.336 92.4129 30.3302 92.5833 30.3302 92.7913V93.5193H31.6476ZM30.9542 98.182C30.3071 98.182 29.7438 98.0838 29.2642 97.8873C28.7905 97.6909 28.4149 97.4164 28.1376 97.064C27.866 96.7116 27.6667 96.3158 27.5396 95.8767C27.4125 95.4318 27.3489 94.9378 27.3489 94.3947C27.3489 93.1004 27.6782 92.1211 28.3369 91.4567C28.9956 90.7922 29.9171 90.46 31.1016 90.46C32.2398 90.46 33.0545 90.7287 33.5456 91.266C34.0367 91.7976 34.2822 92.6556 34.2822 93.84V94.802H30.3216V94.9667C30.3216 95.3076 30.3562 95.5878 30.4256 95.8073C30.5007 96.0269 30.6076 96.1887 30.7462 96.2927C30.8849 96.3967 31.0265 96.466 31.1709 96.5007C31.3153 96.5353 31.4916 96.5527 31.6996 96.5527C31.9018 96.5527 32.1185 96.5267 32.3496 96.4747C32.5865 96.4227 32.8233 96.3418 33.0602 96.232C33.3029 96.1222 33.5051 95.9922 33.6669 95.842L34.1782 96.7173C33.9645 97.064 33.6496 97.3558 33.2336 97.5927C32.8233 97.8238 32.4276 97.9798 32.0462 98.0607C31.6649 98.1416 31.3009 98.182 30.9542 98.182ZM42.3191 97.2807L42.2411 97.376C42.1833 97.4338 42.0851 97.5089 41.9464 97.6013C41.8135 97.688 41.6517 97.7776 41.4611 97.87C41.2762 97.9567 41.0277 98.0289 40.7157 98.0867C40.4037 98.1502 40.0686 98.182 39.7104 98.182C38.9535 98.182 38.3064 98.0578 37.7691 97.8093C37.2317 97.5551 36.81 97.1882 36.5037 96.7087C36.2033 96.2233 35.9866 95.6773 35.8537 95.0707C35.7209 94.4582 35.6544 93.7504 35.6544 92.9473C35.6544 92.0922 35.7209 91.3556 35.8537 90.7373C35.9866 90.1133 36.2062 89.5673 36.5124 89.0993C36.8244 88.6256 37.252 88.2702 37.7951 88.0333C38.3382 87.7964 38.9997 87.678 39.7797 87.678C40.138 87.678 40.4731 87.7098 40.7851 87.7733C41.1029 87.8369 41.3513 87.9091 41.5304 87.99C41.7153 88.0709 41.88 88.1633 42.0244 88.2673C42.1746 88.3713 42.2671 88.4436 42.3017 88.484C42.3422 88.5244 42.3711 88.5562 42.3884 88.5793L42.2584 90.5727H40.9411L40.4904 89.5413C40.3864 89.5124 40.2997 89.498 40.2304 89.498C39.8433 89.498 39.5457 89.5876 39.3377 89.7667C39.1297 89.94 38.9709 90.2838 38.8611 90.798C38.7513 91.3064 38.6964 92.0402 38.6964 92.9993C38.6964 93.5713 38.7311 94.0711 38.8004 94.4987C38.8755 94.9262 38.9651 95.2556 39.0691 95.4867C39.1731 95.712 39.2973 95.894 39.4417 96.0327C39.5862 96.1713 39.7162 96.2609 39.8317 96.3013C39.9473 96.336 40.0715 96.3533 40.2044 96.3533C40.4991 96.3533 40.8082 96.3187 41.1317 96.2493C41.4553 96.1742 41.7211 96.0616 41.9291 95.9113L42.3191 97.2807ZM47.4506 97.142C47.7048 97.142 47.8984 97.038 48.0313 96.83C48.17 96.6162 48.2393 96.3244 48.2393 95.9547V93.216C48.2393 92.0893 47.9735 91.526 47.442 91.526C47.1935 91.526 47 91.6271 46.8613 91.8293C46.7226 92.0316 46.6533 92.3176 46.6533 92.6873V95.504C46.6533 96.596 46.9191 97.142 47.4506 97.142ZM47.3813 98.182C46.0582 98.182 45.0904 97.8816 44.478 97.2807C43.8655 96.6798 43.5593 95.7207 43.5593 94.4033C43.5593 93.0976 43.8684 92.1153 44.4866 91.4567C45.1048 90.7922 46.1102 90.46 47.5026 90.46C48.8604 90.46 49.8397 90.7778 50.4406 91.4133C51.0473 92.0431 51.3506 92.9993 51.3506 94.282C51.3506 95.6109 51.03 96.5931 50.3886 97.2287C49.7531 97.8642 48.7506 98.182 47.3813 98.182ZM55.8741 98H53.0748V92.3927L52.5548 92.072V91.1447L54.4181 90.6333H55.8914V91.7513C55.9203 91.7109 55.9608 91.6589 56.0128 91.5953C56.0705 91.526 56.1745 91.4191 56.3248 91.2747C56.475 91.1302 56.6281 91.0031 56.7841 90.8933C56.9459 90.7836 57.1394 90.6853 57.3648 90.5987C57.5959 90.5062 57.8241 90.46 58.0494 90.46C58.6272 90.46 59.0692 90.5698 59.3754 90.7893C59.6816 91.0089 59.8983 91.3671 60.0254 91.864C60.2219 91.5231 60.5223 91.2053 60.9268 90.9107C61.337 90.6102 61.7876 90.46 62.2788 90.46C62.8219 90.46 63.2436 90.5553 63.5441 90.746C63.8503 90.9309 64.0728 91.2487 64.2114 91.6993C64.3501 92.15 64.4194 92.7856 64.4194 93.606V98H61.6028V93.3547C61.6028 93.1004 61.5421 92.9011 61.4208 92.7567C61.2994 92.6122 61.1145 92.54 60.8661 92.54C60.6985 92.54 60.4703 92.6787 60.1814 92.956C60.1988 93.2333 60.2074 93.5338 60.2074 93.8573V98H57.3474V93.3547C57.3648 92.8116 57.1336 92.54 56.6541 92.54C56.6194 92.54 56.5848 92.5429 56.5501 92.5487C56.5212 92.5544 56.4923 92.5602 56.4634 92.566C56.4403 92.5718 56.4114 92.5833 56.3768 92.6007C56.3479 92.6122 56.3219 92.6238 56.2988 92.6353C56.2756 92.6411 56.2496 92.6556 56.2208 92.6787C56.1919 92.696 56.1688 92.7104 56.1514 92.722C56.1341 92.7336 56.1081 92.7538 56.0734 92.7827C56.0445 92.8058 56.0214 92.8231 56.0041 92.8347C55.9925 92.8462 55.9694 92.8664 55.9348 92.8953C55.9059 92.9184 55.8856 92.9358 55.8741 92.9473V98ZM70.7335 98C70.3984 98 70.0922 97.9653 69.8148 97.896C69.5375 97.8267 69.2948 97.74 69.0868 97.636V100.617H66.2962V92.3927L65.7762 92.072V91.1447L67.6395 90.6333H69.0868V91.214C69.2948 91.0002 69.5462 90.8211 69.8408 90.6767C70.1355 90.5322 70.4793 90.46 70.8722 90.46C71.8255 90.46 72.5246 90.7864 72.9695 91.4393C73.4202 92.0922 73.6455 92.9964 73.6455 94.152C73.6455 94.6951 73.5848 95.1978 73.4635 95.66C73.3422 96.1164 73.163 96.5209 72.9262 96.8733C72.6893 97.2258 72.383 97.5031 72.0075 97.7053C71.6377 97.9018 71.213 98 70.7335 98ZM69.4595 96.7953C70.2337 96.7953 70.6208 96.2031 70.6208 95.0187V93.5453C70.6208 93.0253 70.5313 92.6382 70.3522 92.384C70.1788 92.1298 69.9535 92.0027 69.6762 92.0027C69.4855 92.0027 69.289 92.0604 69.0868 92.176V96.752C69.1562 96.7693 69.2197 96.7809 69.2775 96.7867C69.341 96.7924 69.4017 96.7953 69.4595 96.7953ZM75.3343 98V88.198L74.8143 87.886V87.08L77.5963 86.6467H78.1597V98H75.3343ZM83.9858 93.5193C83.9858 92.7856 83.9482 92.2656 83.8731 91.9593C83.798 91.6531 83.6593 91.5 83.4571 91.5C83.2838 91.5 83.1422 91.5318 83.0324 91.5953C82.9227 91.6531 82.8418 91.7484 82.7898 91.8813C82.7378 92.0084 82.7031 92.1413 82.6858 92.28C82.6742 92.4129 82.6684 92.5833 82.6684 92.7913V93.5193H83.9858ZM83.2924 98.182C82.6453 98.182 82.082 98.0838 81.6024 97.8873C81.1287 97.6909 80.7531 97.4164 80.4758 97.064C80.2042 96.7116 80.0049 96.3158 79.8778 95.8767C79.7507 95.4318 79.6871 94.9378 79.6871 94.3947C79.6871 93.1004 80.0164 92.1211 80.6751 91.4567C81.3338 90.7922 82.2553 90.46 83.4398 90.46C84.578 90.46 85.3927 90.7287 85.8838 91.266C86.3749 91.7976 86.6204 92.6556 86.6204 93.84V94.802H82.6598V94.9667C82.6598 95.3076 82.6944 95.5878 82.7638 95.8073C82.8389 96.0269 82.9458 96.1887 83.0844 96.2927C83.2231 96.3967 83.3647 96.466 83.5091 96.5007C83.6535 96.5353 83.8298 96.5527 84.0378 96.5527C84.24 96.5527 84.4567 96.5267 84.6878 96.4747C84.9247 96.4227 85.1615 96.3418 85.3984 96.232C85.6411 96.1222 85.8433 95.9922 86.0051 95.842L86.5164 96.7173C86.3027 97.064 85.9878 97.3558 85.5718 97.5927C85.1615 97.8238 84.7658 97.9798 84.3844 98.0607C84.0031 98.1416 83.6391 98.182 83.2924 98.182ZM90.3673 98.182C89.5873 98.182 89.0413 97.948 88.7293 97.48C88.4231 97.012 88.27 96.2204 88.27 95.1053V92.1587H87.672V90.954L88.6946 90.6333L89.5786 88.614H91.104V90.6333H92.5253V92.1587H91.078V95.3827C91.078 95.8449 91.1444 96.1511 91.2773 96.3013C91.4102 96.4516 91.6153 96.5267 91.8926 96.5267C92.014 96.5267 92.1237 96.5122 92.222 96.4833C92.3202 96.4544 92.4011 96.414 92.4646 96.362V97.5407C92.378 97.6273 92.2653 97.714 92.1266 97.8007C91.988 97.8816 91.7568 97.9653 91.4333 98.052C91.1155 98.1387 90.7602 98.182 90.3673 98.182ZM97.9618 93.5193C97.9618 92.7856 97.9242 92.2656 97.8491 91.9593C97.774 91.6531 97.6353 91.5 97.4331 91.5C97.2598 91.5 97.1182 91.5318 97.0085 91.5953C96.8987 91.6531 96.8178 91.7484 96.7658 91.8813C96.7138 92.0084 96.6791 92.1413 96.6618 92.28C96.6502 92.4129 96.6445 92.5833 96.6445 92.7913V93.5193H97.9618ZM97.2685 98.182C96.6213 98.182 96.058 98.0838 95.5785 97.8873C95.1047 97.6909 94.7291 97.4164 94.4518 97.064C94.1802 96.7116 93.9809 96.3158 93.8538 95.8767C93.7267 95.4318 93.6631 94.9378 93.6631 94.3947C93.6631 93.1004 93.9925 92.1211 94.6511 91.4567C95.3098 90.7922 96.2313 90.46 97.4158 90.46C98.554 90.46 99.3687 90.7287 99.8598 91.266C100.351 91.7976 100.596 92.6556 100.596 93.84V94.802H96.6358V94.9667C96.6358 95.3076 96.6705 95.5878 96.7398 95.8073C96.8149 96.0269 96.9218 96.1887 97.0605 96.2927C97.1991 96.3967 97.3407 96.466 97.4851 96.5007C97.6296 96.5353 97.8058 96.5527 98.0138 96.5527C98.216 96.5527 98.4327 96.5267 98.6638 96.4747C98.9007 96.4227 99.1376 96.3418 99.3745 96.232C99.6171 96.1222 99.8193 95.9922 99.9811 95.842L100.492 96.7173C100.279 97.064 99.9638 97.3558 99.5478 97.5927C99.1376 97.8238 98.7418 97.9798 98.3605 98.0607C97.9791 98.1416 97.6151 98.182 97.2685 98.182Z" fill="white"/>
<path d="M21.8275 37.5031C21.8275 45.1083 24.8487 52.402 30.2264 57.7797L40.3749 47.6313C37.6887 44.9451 36.1796 41.3019 36.1796 37.5031H21.8275Z" fill="#FACC89"/>
<path d="M70.7797 17.2264C65.402 11.8487 58.1083 8.82751 50.5031 8.82751V23.1796C54.3019 23.1796 57.9451 24.6887 60.6313 27.3749L70.7797 17.2264Z" fill="#1C96D5"/>
<path d="M25.3986 62.6075C28.6954 65.9043 32.6092 68.5194 36.9166 70.3036C41.2241 72.0878 45.8407 73.0061 50.5031 73.0061L50.5031 51.7183C48.6363 51.7183 46.7878 51.3506 45.0631 50.6362C43.3385 49.9218 41.7714 48.8748 40.4514 47.5548L25.3986 62.6075Z" fill="#D9D9D9"/>
<path d="M25.3986 62.6075C28.6954 65.9043 32.6092 68.5194 36.9166 70.3036C41.2241 72.0878 45.8407 73.0061 50.5031 73.0061L50.5031 51.7183C48.6363 51.7183 46.7878 51.3506 45.0631 50.6362C43.3385 49.9218 41.7714 48.8748 40.4514 47.5548L25.3986 62.6075Z" fill="#FFFCD2"/>
<path d="M50.5031 73.0061C55.1654 73.0061 59.7821 72.0878 64.0895 70.3036C68.3969 68.5194 72.3108 65.9043 75.6075 62.6075L60.5548 47.5548C59.2347 48.8748 57.6677 49.9218 55.943 50.6362C54.2183 51.3506 52.3698 51.7183 50.5031 51.7183V73.0061Z" fill="#E9ED99"/>
<path d="M25.3986 12.3986C22.1018 15.6954 19.4867 19.6092 17.7025 23.9166C15.9183 28.2241 15 32.8407 15 37.5031H36.2878C36.2878 35.6363 36.6555 33.7878 37.3699 32.0631C38.0843 30.3385 39.1314 28.7714 40.4514 27.4514L25.3986 12.3986Z" fill="#FCEDF4"/>
<path d="M50.5031 2C45.8407 2 41.2241 2.91831 36.9166 4.70251C32.6092 6.48671 28.6954 9.10184 25.3986 12.3986L40.4514 27.4514C41.7714 26.1314 43.3385 25.0843 45.0631 24.3699C46.7878 23.6555 48.6363 23.2878 50.5031 23.2878V2Z" fill="#FEF9FB"/>
<path d="M21.8275 37.5031C21.8275 41.2688 22.5692 44.9977 24.0103 48.4767C25.4514 51.9558 27.5636 55.117 30.2264 57.7797L32.3937 55.6125C30.0155 53.2343 28.129 50.411 26.842 47.3038C25.5549 44.1966 24.8925 40.8663 24.8925 37.5031H21.8275Z" fill="#F49B07"/>
<path d="M70.7797 17.2264C68.117 14.5636 64.9558 12.4514 61.4767 11.0103C57.9976 9.56923 54.2688 8.82751 50.5031 8.82751L50.5031 11.8925C53.8663 11.8925 57.1966 12.5549 60.3038 13.842C63.411 15.129 66.2343 17.0155 68.6125 19.3937L70.7797 17.2264Z" fill="#0068B7"/>
<path d="M50.5031 2C45.8407 2 41.2241 2.91831 36.9166 4.70251C32.6092 6.48671 28.6954 9.10184 25.3986 12.3986L37.2925 24.2925C39.0274 22.5577 41.0869 21.1816 43.3536 20.2427C45.6202 19.3038 48.0496 18.8206 50.5031 18.8206V2Z" fill="#FCF2F7"/>
<path d="M50.5031 73.0061C55.1654 73.0061 59.7821 72.0878 64.0895 70.3036C68.3969 68.5194 72.3108 65.9043 75.6075 62.6075L63.7136 50.7136C61.9788 52.4484 59.9192 53.8246 57.6525 54.7634C55.3859 55.7023 52.9565 56.1856 50.5031 56.1856V73.0061Z" fill="#CDE299"/>
<path d="M25.3986 12.3986C22.1018 15.6954 19.4867 19.6092 17.7025 23.9166C15.9183 28.2241 15 32.8407 15 37.5031H31.8206C31.8206 35.0496 32.3038 32.6203 33.2427 30.3536C34.1816 28.0869 35.5577 26.0274 37.2925 24.2925L25.3986 12.3986Z" fill="#F7C7DC"/>
<path d="M50.5031 73.0061C55.1654 73.0061 59.7821 72.0878 64.0895 70.3036C68.3969 68.5194 72.3108 65.9043 75.6075 62.6075L65.7953 52.7953C63.7871 54.8035 61.403 56.3965 58.7792 57.4833C56.1553 58.5701 53.3431 59.1295 50.5031 59.1295V73.0061Z" fill="#8AC998"/>
<path d="M25.3986 12.3986C22.1018 15.6954 19.4867 19.6092 17.7025 23.9166C15.9183 28.2241 15 32.8407 15 37.5031H28.8766C28.8766 34.663 29.436 31.8508 30.5228 29.227C31.6097 26.6031 33.2027 24.2191 35.2109 22.2109L25.3986 12.3986Z" fill="#ED81B0"/>
<path d="M50.5031 2C45.8407 2 41.2241 2.91831 36.9166 4.70251C32.6092 6.48671 28.6954 9.10184 25.3986 12.3986L35.2109 22.2109C37.2191 20.2027 39.6031 18.6097 42.227 17.5228C44.8508 16.436 47.663 15.8766 50.5031 15.8766V2Z" fill="#FBE4EF"/>
<path d="M25.3986 62.6075C28.6954 65.9043 32.6092 68.5194 36.9166 70.3036C41.2241 72.0878 45.8407 73.0061 50.5031 73.0061V63.0474C47.1485 63.0474 43.8268 62.3867 40.7277 61.103C37.6285 59.8193 34.8125 57.9377 32.4405 55.5657L25.3986 62.6075Z" fill="#FFF899"/>
<path d="M50.5031 2C45.8407 2 41.2241 2.91831 36.9166 4.70251C32.6092 6.48671 28.6954 9.10184 25.3986 12.3986L32.4405 19.4405C34.8125 17.0684 37.6285 15.1869 40.7277 13.9031C43.8268 12.6194 47.1485 11.9587 50.5031 11.9587V2Z" fill="#F7C6DB"/>
<path d="M25.3986 62.6075C28.6954 65.9043 32.6092 68.5194 36.9166 70.3036C41.2241 72.0878 45.8407 73.0061 50.5031 73.0061V65.2598C46.858 65.2598 43.2486 64.5419 39.881 63.147C36.5134 61.7521 33.4535 59.7075 30.8761 57.1301L25.3986 62.6075Z" fill="#8AC998"/>
<path d="M50.5031 2C45.8407 2 41.2241 2.91831 36.9166 4.70251C32.6092 6.48671 28.6954 9.10184 25.3986 12.3986L30.7463 17.7463C33.3408 15.1518 36.4209 13.0937 39.8108 11.6896C43.2006 10.2854 46.8339 9.56275 50.5031 9.56275V2Z" fill="#ED81B0"/>
<path d="M50.5031 2C45.8407 2 41.2241 2.91831 36.9166 4.70251C32.6092 6.48671 28.6954 9.10184 25.3986 12.3986C22.1018 15.6954 19.4867 19.6092 17.7025 23.9166C15.9183 28.2241 15 32.8407 15 37.5031H17.9658C17.9658 33.2302 18.8074 28.9992 20.4425 25.0516C22.0777 21.104 24.4744 17.5171 27.4957 14.4957C30.5171 11.4744 34.104 9.07769 38.0516 7.44254C41.9992 5.80738 46.2302 4.96578 50.5031 4.96578V2Z" fill="#E4007F"/>
<path d="M25.3986 62.6075C28.6954 65.9043 32.6092 68.5194 36.9166 70.3036C41.2241 72.0878 45.8407 73.0061 50.5031 73.0061C55.1654 73.0061 59.7821 72.0878 64.0895 70.3036C68.3969 68.5194 72.3108 65.9043 75.6075 62.6075L73.5104 60.5104C70.489 63.5318 66.9022 65.9284 62.9546 67.5636C59.0069 69.1987 54.7759 70.0404 50.5031 70.0404C46.2302 70.0404 41.9992 69.1988 38.0516 67.5636C34.104 65.9284 30.5171 63.5318 27.4957 60.5104L25.3986 62.6075Z" fill="#009944"/>
<path d="M74.2188 83.4531L75.7266 79.7031C75.7786 79.5677 75.8594 79.5 75.9688 79.5C76.0833 79.5 76.1641 79.5286 76.2109 79.5859C76.263 79.6432 76.2891 79.7031 76.2891 79.7656C76.2891 79.8281 76.2812 79.875 76.2656 79.9062L74.6875 83.7344C74.5938 83.9323 74.4635 84.0312 74.2969 84.0312H74.1484C73.9714 84.0312 73.8411 83.9323 73.7578 83.7344L72.1719 79.9062C72.1615 79.875 72.1562 79.8281 72.1562 79.7656C72.1562 79.7031 72.1797 79.6432 72.2266 79.5859C72.2786 79.5286 72.3438 79.5 72.4219 79.5C72.5625 79.5 72.6615 79.5677 72.7188 79.7031L74.2188 83.4531ZM76.9688 81C76.9688 80.9115 76.9974 80.8411 77.0547 80.7891C77.112 80.7318 77.1823 80.7031 77.2656 80.7031C77.349 80.7031 77.4167 80.7318 77.4688 80.7891C77.5208 80.8411 77.5469 80.9115 77.5469 81V83.7422C77.5469 83.8203 77.5208 83.888 77.4688 83.9453C77.4167 84.0026 77.349 84.0312 77.2656 84.0312C77.1823 84.0312 77.112 84.0026 77.0547 83.9453C76.9974 83.888 76.9688 83.8203 76.9688 83.7422V81ZM77.6094 79.7422C77.6094 79.8359 77.5781 79.9141 77.5156 79.9766C77.4531 80.0391 77.375 80.0703 77.2812 80.0703H77.2422C77.1484 80.0703 77.0703 80.0391 77.0078 79.9766C76.9505 79.9141 76.9219 79.8359 76.9219 79.7422V79.7188C76.9219 79.625 76.9531 79.5469 77.0156 79.4844C77.0781 79.4219 77.1536 79.3906 77.2422 79.3906H77.2812C77.375 79.3906 77.4531 79.4219 77.5156 79.4844C77.5781 79.5469 77.6094 79.625 77.6094 79.7188V79.7422ZM78.9766 82.5781C79.013 82.8646 79.1224 83.0938 79.3047 83.2656C79.4922 83.4323 79.7474 83.5156 80.0703 83.5156C80.3984 83.5156 80.6771 83.4635 80.9062 83.3594C80.9792 83.3229 81.0443 83.3047 81.1016 83.3047C81.1589 83.2995 81.2109 83.3203 81.2578 83.3672C81.3099 83.4141 81.3359 83.4661 81.3359 83.5234C81.3359 83.638 81.2891 83.7188 81.1953 83.7656C81.1068 83.8125 81.026 83.8542 80.9531 83.8906C80.8802 83.9271 80.8021 83.9583 80.7188 83.9844C80.526 84.0365 80.3021 84.0625 80.0469 84.0625C79.5208 84.0625 79.112 83.9167 78.8203 83.625C78.5339 83.3281 78.3906 82.9089 78.3906 82.3672C78.3906 81.8984 78.513 81.5078 78.7578 81.1953C79.0339 80.8464 79.4219 80.6719 79.9219 80.6719C80.401 80.6719 80.7786 80.8333 81.0547 81.1562C81.3151 81.4583 81.4453 81.8359 81.4453 82.2891C81.4453 82.3672 81.4167 82.4349 81.3594 82.4922C81.3073 82.5495 81.2396 82.5781 81.1562 82.5781H78.9766ZM79.9219 81.1641C79.5417 81.1641 79.2656 81.3333 79.0938 81.6719C79.0312 81.7917 78.9922 81.9349 78.9766 82.1016H80.8672C80.8516 81.7995 80.7396 81.5599 80.5312 81.3828C80.3646 81.237 80.1615 81.1641 79.9219 81.1641ZM83.4141 83.5469C83.5286 83.5469 83.6094 83.5391 83.6562 83.5234C83.7083 83.5026 83.763 83.4922 83.8203 83.4922C83.8776 83.4922 83.9297 83.5156 83.9766 83.5625C84.0234 83.6042 84.0469 83.6693 84.0469 83.7578C84.0469 83.8411 84.0052 83.901 83.9219 83.9375C83.7396 84.0208 83.5833 84.0625 83.4531 84.0625C83.3229 84.0625 83.2031 84.0547 83.0938 84.0391C82.9896 84.0286 82.888 83.9948 82.7891 83.9375C82.5547 83.8021 82.4375 83.5625 82.4375 83.2188V81.2344H81.9844C81.9062 81.2344 81.8646 81.1927 81.8594 81.1094C81.8594 81.0729 81.8802 81.0391 81.9219 81.0078L82.7891 80.1562C82.8255 80.1198 82.862 80.1016 82.8984 80.1016C82.9349 80.0964 82.9635 80.1068 82.9844 80.1328C83.0052 80.1589 83.0156 80.1901 83.0156 80.2266V80.7344H83.7422C83.8151 80.7344 83.875 80.7578 83.9219 80.8047C83.9688 80.8516 83.9922 80.9115 83.9922 80.9844C83.9922 81.0573 83.9688 81.1172 83.9219 81.1641C83.875 81.2109 83.8151 81.2344 83.7422 81.2344H83.0156V83.1719C83.0156 83.3333 83.0651 83.4427 83.1641 83.5C83.2161 83.5312 83.2995 83.5469 83.4141 83.5469ZM88.3984 79.5C88.4766 79.5 88.5443 79.5286 88.6016 79.5859C88.6589 79.6432 88.6875 79.7135 88.6875 79.7969V83.6172C88.6875 83.7318 88.6458 83.8307 88.5625 83.9141C88.4792 83.9922 88.3802 84.0312 88.2656 84.0312H88.1875C88.0469 84.0312 87.9349 83.974 87.8516 83.8594L85.375 80.2812V83.7422C85.375 83.8203 85.3464 83.888 85.2891 83.9453C85.2318 84.0026 85.1615 84.0312 85.0781 84.0312C85 84.0312 84.9323 84.0026 84.875 83.9453C84.8177 83.888 84.7891 83.8203 84.7891 83.7422V79.9219C84.7891 79.8073 84.8281 79.7083 84.9062 79.625C84.9896 79.5417 85.0911 79.5 85.2109 79.5H85.2891C85.4245 79.5 85.5443 79.5651 85.6484 79.6953L88.1094 83.25V79.7969C88.1094 79.7188 88.138 79.651 88.1953 79.5938C88.2526 79.5312 88.3203 79.5 88.3984 79.5ZM89.9297 80.8984C90.2891 80.7422 90.6615 80.6667 91.0469 80.6719C91.4792 80.6719 91.8151 80.8047 92.0547 81.0703C92.2682 81.2995 92.3776 81.5859 92.3828 81.9297V83.7422C92.3828 83.8203 92.3516 83.888 92.2891 83.9453C92.2318 84.0026 92.1615 84.0312 92.0781 84.0312C92 84.0312 91.9323 84.0026 91.875 83.9453C91.8177 83.888 91.7891 83.8203 91.7891 83.7422V83.5781C91.6745 83.6979 91.5208 83.8099 91.3281 83.9141C91.1354 84.013 90.8906 84.0625 90.5938 84.0625C90.2969 84.0625 90.0495 83.9766 89.8516 83.8047C89.6484 83.6276 89.5469 83.3958 89.5469 83.1094C89.5469 82.7917 89.6667 82.5417 89.9062 82.3594C90.1667 82.1615 90.5365 82.0651 91.0156 82.0703H91.7891V82.0156C91.7891 81.7292 91.7188 81.526 91.5781 81.4062C91.4427 81.2865 91.2292 81.2266 90.9375 81.2266C90.6927 81.2266 90.4089 81.276 90.0859 81.375C90.0547 81.3854 90.0156 81.3906 89.9688 81.3906C89.9271 81.3906 89.8828 81.3698 89.8359 81.3281C89.7891 81.2812 89.763 81.2109 89.7578 81.1172C89.7578 81.0182 89.8151 80.9453 89.9297 80.8984ZM90.1328 83.0391C90.1328 83.3828 90.3594 83.5521 90.8125 83.5469C91.0104 83.5469 91.1953 83.5 91.3672 83.4062C91.5443 83.3073 91.6849 83.1979 91.7891 83.0781V82.5391H91.1016C90.7995 82.5391 90.5625 82.5781 90.3906 82.6562C90.2188 82.7292 90.1328 82.8568 90.1328 83.0391ZM93.9375 81.2656C94.1979 80.875 94.5599 80.6771 95.0234 80.6719C95.2526 80.6719 95.4635 80.7396 95.6562 80.875C95.8125 80.9844 95.9297 81.1354 96.0078 81.3281C96.1276 81.1406 96.2448 81.0104 96.3594 80.9375C96.599 80.7604 96.8724 80.6719 97.1797 80.6719C97.5234 80.6719 97.7943 80.8047 97.9922 81.0703C98.1641 81.2943 98.25 81.5703 98.25 81.8984V83.7422C98.25 83.8203 98.2214 83.888 98.1641 83.9453C98.112 84.0026 98.0443 84.0312 97.9609 84.0312C97.8828 84.0312 97.8151 84.0026 97.7578 83.9453C97.7005 83.888 97.6719 83.8203 97.6719 83.7422V82.0156C97.6719 81.7448 97.6224 81.5443 97.5234 81.4141C97.4297 81.2786 97.263 81.2109 97.0234 81.2109C96.6484 81.2109 96.3385 81.4167 96.0938 81.8281V83.7422C96.0938 83.8203 96.0651 83.888 96.0078 83.9453C95.9557 84.0026 95.888 84.0312 95.8047 84.0312C95.7266 84.0312 95.6589 84.0026 95.6016 83.9453C95.5443 83.888 95.5156 83.8203 95.5156 83.7422V82.0156C95.5156 81.7448 95.4661 81.5443 95.3672 81.4141C95.2734 81.2786 95.1068 81.2109 94.8672 81.2109C94.4922 81.2109 94.1823 81.4167 93.9375 81.8281V83.7422C93.9375 83.8203 93.9089 83.888 93.8516 83.9453C93.7943 84.0026 93.7266 84.0312 93.6484 84.0312C93.5703 84.0312 93.5026 84.0026 93.4453 83.9453C93.388 83.888 93.3594 83.8203 93.3594 83.7422V81C93.3594 80.9219 93.3854 80.8542 93.4375 80.7969C93.4948 80.7344 93.5651 80.7031 93.6484 80.7031C93.7266 80.7031 93.7943 80.7318 93.8516 80.7891C93.9089 80.8464 93.9375 80.9167 93.9375 81V81.2656Z" fill="#0068B7"/>
</svg>
